<svg xmlns="http://www.w3.org/2000/svg" width="16" height="16" fill="none"><path fill="#fff" d="M13.78 13.325c.22.214.569.207.775 0a.546.546 0 000-.77L2.218.162a.543.543 0 00-.775 0 .551.551 0 000 .77L13.78 13.326zM7.81 4.582c.083-.013.179-.02.268-.02 2.529.048 4.66 1.025 6.346 2.76a.346.346 0 00.508-.013l.959-.971a.312.312 0 00.027-.448c-1.679-2.024-4.729-3.51-7.916-3.51-.699 0-1.398.068-2.152.227l1.96 1.975zm-4.887-.929C1.786 4.245.806 5.016.08 5.89c-.11.131-.11.31.028.448l.96.97c.15.152.376.152.52-.006.857-.91 1.83-1.598 2.933-2.052L2.923 3.653zm9.815 5.872l.405-.406c.137-.13.144-.296.027-.434-.706-.874-1.912-1.624-3.214-1.955l2.782 2.795zm-6.73-2.788c-1.323.365-2.447 1.074-3.18 1.948-.117.138-.103.31.027.434l1.076 1.06c.164.159.384.145.541-.027.816-.895 2.09-1.508 3.4-1.542L6.008 6.737zm1.994 3.738c-.98 0-1.864.517-2.337 1.164-.082.124-.048.275.075.392l1.68 1.625c.274.268.418.344.582.344.172 0 .315-.083.59-.344l1.679-1.625a.332.332 0 00.041-.447 3.003 3.003 0 00-2.31-1.109z"/></svg>