<svg xmlns="http://www.w3.org/2000/svg" width="16" height="16" fill="none"><path fill="#fff" d="M1.067 7.104c.144.164.37.157.52-.014 1.694-1.855 3.922-2.836 6.41-2.836 2.509 0 4.743.98 6.43 2.85.143.15.363.142.507-.014l.96-1.002c.137-.143.137-.327.027-.462C14.269 3.514 11.19 2 7.997 2 4.81 2 1.725 3.507.08 5.626c-.11.135-.11.32.02.462l.967 1.016zm2.865 2.958c.165.163.384.149.542-.029.836-.945 2.173-1.614 3.53-1.606 1.364-.008 2.7.675 3.557 1.628.144.17.35.163.508 0l1.076-1.095c.13-.128.144-.306.027-.448-1.07-1.344-3.023-2.31-5.168-2.31-2.153 0-4.106.966-5.175 2.31-.117.142-.103.313.027.448l1.076 1.102zM8.004 14c.164 0 .308-.078.59-.355l1.679-1.678a.35.35 0 00.04-.462 2.98 2.98 0 00-2.31-1.145c-.986 0-1.87.533-2.343 1.202-.083.128-.042.284.075.405l1.68 1.678c.273.27.424.355.589.355z"/></svg>