<svg xmlns="http://www.w3.org/2000/svg" width="16" height="16" fill="none"><path fill="#8A8C91" fill-rule="evenodd" d="M16 14.963c0 .585-.43 1.037-1.03 1.037a1.09 1.09 0 01-.76-.293l-3.91-3.882a6.56 6.56 0 01-3.74 1.17C2.943 12.995 0 10.07 0 6.498 0 2.925 2.944 0 6.56 0c3.606 0 6.559 2.925 6.559 6.498a6.407 6.407 0 01-1.298 3.864l3.884 3.856c.206.204.295.47.295.745zM1.521 6.497c0 2.73 2.273 4.982 5.039 4.982 2.756 0 5.029-2.251 5.029-4.982 0-2.73-2.273-4.981-5.03-4.981-2.765 0-5.038 2.251-5.038 4.981z" clip-rule="evenodd"/></svg>