<svg xmlns="http://www.w3.org/2000/svg" width="24" height="24"><path fill="#D0D1D3" d="M19.694 12.659c2.336 0 4.306-1.972 4.306-4.33C24 5.954 22.057 4 19.694 4c-2.353 0-4.306 1.954-4.306 4.33 0 2.375 1.953 4.329 4.306 4.329zm-5.411-3.577a4.183 4.183 0 01-.062-.753c0-.94.231-1.828.66-2.608H9.628c-.588 0-.936-.143-1.372-.51l-.5-.413c-.57-.475-1.007-.637-1.854-.637H3.398C1.883 4.161 1 5.031 1 6.77v2.312h13.283zm5.411 2.062c-.303 0-.561-.215-.561-.547v-1.73h-1.605a.545.545 0 01-.535-.547c0-.286.24-.537.535-.537h1.605v-1.73c0-.332.258-.547.561-.547.312 0 .57.215.57.547v1.73h1.605a.543.543 0 010 1.084h-1.604v1.73c0 .332-.259.547-.57.547zM17.983 20c1.542 0 2.451-.905 2.451-2.68v-3.54c-.24.035-.49.053-.74.053-2.327 0-4.332-1.488-5.108-3.567H1v7.054C1 19.095 1.918 20 3.692 20h14.29z"/></svg>