<svg xmlns="http://www.w3.org/2000/svg" width="24" height="24" fill="none"><path fill="#44474E" d="M7.169 20h9.662C18.921 20 20 18.921 20 16.86V7.14C20 5.079 18.921 4 16.831 4H7.17C5.089 4 4 5.069 4 7.14v9.72C4 18.921 5.088 20 7.169 20zm.125-1.916c-.886 0-1.377-.463-1.377-1.397V7.313c0-.934.49-1.396 1.377-1.396h9.412c.877 0 1.378.462 1.378 1.396v9.374c0 .934-.501 1.396-1.378 1.396H7.294zm7.667-4.633c.472 0 .77-.347.77-.857V9.193c0-.646-.355-.935-.953-.935h-3.42c-.51 0-.838.299-.838.77 0 .473.337.781.848.781h.608l1.29-.154-1.396 1.28-3.323 3.323a.848.848 0 00-.27.598c0 .5.347.828.829.828.25 0 .462-.087.636-.26l3.313-3.313 1.261-1.378-.135 1.358v.513c0 .52.309.847.78.847z"/></svg>