<svg xmlns="http://www.w3.org/2000/svg" width="24" height="24"><path fill="#D0D1D3" d="M17.78 3.164C17.722 2.401 17.284 2 16.453 2H7.696c-.822 0-1.26.4-1.317 1.164h11.4zm1.727 2.478c-.122-.81-.523-1.267-1.429-1.267H5.913c-.906 0-1.308.457-1.438 1.267h15.032zM18.676 22c1.858 0 2.81-.932 2.81-2.776V9.853c0-1.835-.952-2.776-2.81-2.776H5.306c-1.877 0-2.82.931-2.82 2.776v9.371c0 1.844.943 2.776 2.82 2.776h13.37zM12 16.057c-1.485-.01-2.689-1.258-2.689-2.925 0-1.565 1.204-2.85 2.689-2.85s2.68 1.285 2.68 2.85c0 1.667-1.195 2.943-2.68 2.925zm5.443 4.425H6.538c.719-1.444 2.502-3.177 5.443-3.177s4.743 1.733 5.462 3.177z"/></svg>