<svg xmlns="http://www.w3.org/2000/svg" width="24" height="24"><path fill="#D0D1D3" d="M17.211 22C19.055 22 20 20.998 20 19.032v-8.393h-6.485c-1.132 0-1.665-.56-1.665-1.75V2H6.789C4.945 2 4 3.002 4 4.958v14.074C4 21.007 4.945 22 6.789 22H17.21zm2.686-12.658c-.056-.403-.327-.787-.758-1.249l-4.866-5.199c-.42-.452-.805-.737-1.179-.806v6.733c0 .344.16.52.487.52h6.316zM15.793 18.3H8.207c-.406 0-.707-.283-.707-.655 0-.362.301-.645.707-.645h7.586c.395 0 .707.283.707.645 0 .372-.312.655-.707.655zm0-3H8.207c-.406 0-.707-.283-.707-.655 0-.362.301-.645.707-.645h7.586c.395 0 .707.283.707.645 0 .372-.312.655-.707.655z"/></svg>