<svg xmlns="http://www.w3.org/2000/svg" width="24" height="24" fill="none"><path fill="#8A8C91" fill-rule="evenodd" d="M13.91 22.992c.257-.042.432-.24.473-.51l.164-1.19c.473-.124.935-.312 1.397-.51l.863.792c.185.188.441.22.698.084.216-.136.308-.376.257-.647l-.236-1.167c.39-.282.78-.605 1.14-.96l1.068.46c.257.104.493.051.688-.189a.554.554 0 00.051-.688l-.626-1.01c.277-.407.513-.845.73-1.304l1.18.052a.548.548 0 00.575-.386.593.593 0 00-.205-.677l-.924-.74c.123-.47.226-.97.267-1.48l1.109-.366c.257-.093.421-.292.421-.563 0-.27-.164-.469-.421-.563l-1.11-.364a8.644 8.644 0 00-.266-1.48l.924-.741a.593.593 0 00.205-.667.549.549 0 00-.575-.386l-1.18.042a10.23 10.23 0 00-.73-1.304l.626-1.01a.54.54 0 00-.051-.678c-.195-.23-.431-.292-.688-.188l-1.068.448c-.36-.344-.75-.677-1.14-.959l.236-1.157c.051-.282-.041-.521-.257-.646-.257-.136-.503-.115-.698.083l-.863.782a10.21 10.21 0 00-1.397-.511l-.164-1.178a.581.581 0 00-.473-.51c-.277-.032-.513.082-.616.301l-.555 1.074a9.324 9.324 0 00-1.489 0l-.544-1.074c-.113-.219-.35-.333-.627-.302a.584.584 0 00-.472.51l-.164 1.179a9.743 9.743 0 00-1.387.51l-.863-.781c-.205-.198-.452-.219-.698-.083-.226.125-.319.364-.267.646l.246 1.157c-.4.282-.79.615-1.14.96l-1.078-.45c-.257-.103-.493-.04-.688.189a.555.555 0 00-.052.667l.627 1.021c-.277.417-.503.845-.73 1.304l-1.18-.042a.566.566 0 00-.576.386c-.082.26-.01.5.206.667l.924.74a7.87 7.87 0 00-.257 1.48l-1.12.365a.561.561 0 00-.41.563c0 .282.154.48.41.563l1.12.365c.031.511.134 1.011.257 1.48l-.924.74c-.206.168-.278.418-.206.678.093.25.319.407.575.386l1.182-.052c.215.459.452.897.729 1.303l-.627 1.012a.555.555 0 00.052.688c.195.24.431.292.688.187l1.078-.459c.35.355.74.678 1.14.96l-.246 1.167c-.052.271.04.511.267.647a.565.565 0 00.698-.084l.853-.792c.462.198.924.386 1.397.51l.164 1.19c.041.27.216.468.483.51a.568.568 0 00.616-.313l.544-1.073.053.004c.237.02.458.037.697.037.229 0 .449-.018.684-.037l.056-.005.554 1.074c.103.23.34.355.616.313zm5.896-11.676h-5.33c-.463-1.251-1.387-1.94-2.507-1.94-.174 0-.36.021-.667.094L8.57 4.727A7.671 7.671 0 0112 3.935c4.19 0 7.477 3.221 7.806 7.38zm-15.643.688c0 2.68 1.223 5.035 3.154 6.495l2.814-4.681c-.534-.584-.76-1.157-.76-1.783 0-.646.246-1.251.76-1.814L7.378 5.446c-1.962 1.46-3.215 3.847-3.215 6.558zm7.816 1.22c-.616 0-1.18-.543-1.18-1.2a1.2 1.2 0 011.18-1.188c.658 0 1.202.521 1.202 1.189 0 .656-.544 1.198-1.201 1.198zm-3.481 6.015a7.674 7.674 0 003.502.823c4.19 0 7.477-3.22 7.806-7.36h-5.33c-.453 1.272-1.377 1.981-2.507 1.981-.174 0-.37-.02-.667-.094l-2.804 4.65z" clip-rule="evenodd"/></svg>