<svg xmlns="http://www.w3.org/2000/svg" width="24" height="24"><path fill="#D0D1D3" d="M16.189 11.795c1.659 0 3.082-1.504 3.082-3.443C19.271 6.438 17.84 5 16.19 5c-1.66 0-3.091 1.47-3.091 3.369 0 1.922 1.423 3.426 3.09 3.426zm-8.874.18c1.44 0 2.684-1.314 2.684-3.007C10 7.3 8.755 6.06 7.315 6.06c-1.44 0-2.692 1.273-2.692 2.925 0 1.676 1.245 2.99 2.692 2.99zM8.861 19c-.814-1.175.138-3.533 1.821-4.847-.854-.576-1.952-.995-3.375-.995-3.457 0-5.644 2.58-5.644 4.716 0 .723.382 1.126 1.382 1.126h5.816zm12.142 0c1.229 0 1.66-.362 1.66-1.052 0-2.004-2.49-4.765-6.483-4.765-3.985 0-6.482 2.76-6.482 4.765 0 .69.431 1.052 1.66 1.052h9.645z"/></svg>