<svg xmlns="http://www.w3.org/2000/svg" width="24" height="24" fill="none"><path fill="#8A8C91" d="M3.039 21.448c1.455 1.446 3.453 1.371 5.017-.192 1.32-1.322 3.67-5.427 5.886-7.642 1.413-1.413 2.993-.636 4.707-1.33l-1.43-5.25c-.167-.627.084-1.146.803-1.346l3.227-.878c-.117-.352-.401-.836-.803-1.238-1.99-2.04-5.292-2.082-7.274-.2-2.884 2.742-.752 5.576-2.516 7.332-2.3 2.3-5.694 3.963-7.433 5.719-1.555 1.572-1.639 3.57-.184 5.025zm16.622-9.649c.317-.192.635-.451.961-.769 1.045-1.003 1.572-2.483 1.313-3.628l-2.55.71c-.26.075-.477.092-.711.059l.986 3.628zM4.51 19.985a1.447 1.447 0 01-.017-2.007c.543-.56 1.455-.535 2.015-.008.585.543.526 1.446-.009 2.023-.51.544-1.454.535-1.99-.008z"/></svg>