<svg xmlns="http://www.w3.org/2000/svg" width="24" height="24" fill="none"><path fill="#44474E" d="M17.864 18.922l.509-11.063h.72c.524 0 .907-.376.907-.892 0-.509-.383-.877-.908-.877h-3.301v-.86c0-1.346-.955-2.23-2.52-2.23h-2.55C9.164 3 8.2 3.884 8.2 5.23v.86H4.908c-.517 0-.908.368-.908.877 0 .516.391.892.908.892h.72l.508 11.07c.063 1.362.892 2.097 2.253 2.097h7.222c1.361 0 2.19-.735 2.253-2.104zm-7.8-13.637c0-.407.305-.689.75-.689h2.371c.446 0 .744.282.751.689l.008.805h-3.896l.016-.805zM8.64 19.227c-.407 0-.665-.282-.689-.743L7.458 7.859h9.076l-.485 10.625c-.016.47-.274.743-.689.743H8.64zm5.64-1.127c.353 0 .611-.29.627-.688l.234-7.691c.008-.391-.258-.697-.61-.697-.344 0-.618.313-.634.689l-.234 7.683c-.008.391.266.704.618.704zm-4.56 0c.36 0 .633-.313.617-.704l-.234-7.683c-.016-.376-.29-.689-.634-.689-.352 0-.618.306-.602.697l.234 7.69c.008.4.274.69.618.69zm2.284 0c.336 0 .618-.313.618-.688V9.713c0-.376-.282-.689-.618-.689-.344 0-.626.313-.626.689v7.699c0 .375.282.688.626.688z"/></svg>