<svg xmlns="http://www.w3.org/2000/svg" width="24" height="24"><path fill="#D0D1D3" d="M16.215 22c1.258 0 1.996-.658 2.05-1.903l.593-12.993h1.33a.797.797 0 10.001-1.596h-4.047V4.28c0-1.388-.966-2.281-2.515-2.281h-3.254c-1.55 0-2.515.893-2.515 2.281v1.227H3.81a.8.8 0 00-.811.793c0 .451.365.803.811.803h1.35l.583 12.993C5.798 21.342 6.536 22 7.793 22h8.422zM14.447 5.508H9.571V4.362c0-.495.374-.847.912-.847h3.044c.537 0 .911.352.911.847l.01 1.146zm-5.65 13.967c-.347 0-.602-.297-.62-.703l-.374-9.73c-.01-.396.273-.703.629-.703.346 0 .629.316.647.694l.346 9.73c.01.397-.255.712-.629.712zm3.208 0c-.347 0-.648-.315-.648-.703V9.033c0-.378.301-.694.648-.694.346 0 .656.316.656.694l-.01 9.739c0 .388-.3.703-.646.703zm3.208 0c-.374 0-.638-.315-.63-.712l.356-9.73c.01-.378.301-.694.647-.694.356 0 .638.307.63.703l-.384 9.73c-.009.406-.273.703-.62.703z"/></svg>