<svg width="16" height="16" viewBox="0 0 16 16" fill="none" xmlns="http://www.w3.org/2000/svg">
<path fill-rule="evenodd" clip-rule="evenodd" d="M2.66732 13.334H7.33398C7.70217 13.334 8.00065 13.6325 8.00065 14.0007C8.00065 14.3688 7.70217 14.6673 7.33398 14.6673H2.00065C1.63246 14.6673 1.33398 14.3688 1.33398 14.0007V2.00065C1.33398 1.63246 1.63246 1.33398 2.00065 1.33398H7.33398C7.70217 1.33398 8.00065 1.63246 8.00065 2.00065C8.00065 2.36884 7.70217 2.66732 7.33398 2.66732H2.66732V13.334ZM6.00065 8.66732C5.63246 8.66732 5.33398 8.36884 5.33398 8.00065C5.33398 7.63246 5.63246 7.33398 6.00065 7.33398H12.0578L11.1959 6.47206C10.9356 6.21171 10.9356 5.7896 11.1959 5.52925C11.4563 5.2689 11.8784 5.2689 12.1387 5.52925L14.6101 8.00065L12.1387 10.4721C11.8784 10.7324 11.4563 10.7324 11.1959 10.4721C10.9356 10.2117 10.9356 9.7896 11.1959 9.52925L12.0578 8.66732H6.00065Z" fill="#827F9B"/>
</svg>
