<svg xmlns="http://www.w3.org/2000/svg" xmlns:xlink="http://www.w3.org/1999/xlink" width="64" height="64"><defs><path id="a" d="M0 64h64V0H0z"/></defs><g fill="none" fill-rule="evenodd"><mask id="b" fill="#fff"><use xlink:href="#a"/></mask><use fill="#006FCF" xlink:href="#a"/><g mask="url(#b)"><path fill="#F2F2F2" d="M23.598 52.74V30.097l40.3.037v6.254l-4.658 4.978 4.658 5.023v6.388h-7.437l-3.952-4.362-3.925 4.378-24.986-.053"/><path fill="#F2F2F2" d="M25.477 10h9.715l3.412 7.748V10h11.993l2.068 5.805L54.74 10h9.158v22.643H15.5L25.477 10"/><path fill="#006FCF" d="M26.289 50.258V32.589h14.982v4.071H31.14v2.762h9.889v4.003H31.14v2.714h10.131v4.119H26.289"/><path fill="#006FCF" d="M41.196 50.258l8.29-8.845-8.29-8.823h6.416l5.065 5.6 5.08-5.6h6.141v.139l-8.113 8.684 8.113 8.594v.251h-6.202l-5.156-5.656-5.102 5.656h-6.242"/><path fill="#016FD0" d="M27.317 12.46l-7.84 17.654h5.377l1.479-3.536h8.014l1.478 3.536h5.51L33.53 12.46h-6.212zm.673 10.157l2.351-5.62 2.35 5.62h-4.7z"/><path fill="#006FCF" d="M41.262 30.11V12.457l7.558.026 3.889 10.853 3.915-10.879h7.274V30.11l-4.681.042V18.026L54.799 30.11h-4.273l-4.51-12.126V30.11h-4.754"/></g></g></svg>