<svg xmlns="http://www.w3.org/2000/svg" width="64" height="64" style="background:#f2f2f2"><g fill="none" fill-rule="evenodd"><path fill="#F2F2F2" d="M0 0h64v64H0z"/><g fill-rule="nonzero"><path fill="#6C6BB8" d="M25.478 20.991h12.214V42.98H25.478z"/><path fill="#D72E2B" d="M26.253 31.987a13.969 13.969 0 015.332-10.996 13.942 13.942 0 00-18.881 1.507c-4.939 5.358-4.939 13.617 0 18.974 4.938 5.357 13.157 6.013 18.88 1.508a13.969 13.969 0 01-5.331-10.993z"/><path fill="#4396D9" d="M54.171 31.987a13.985 13.985 0 01-7.859 12.577 13.94 13.94 0 01-14.727-1.584 13.992 13.992 0 005.333-10.995c0-4.29-1.966-8.343-5.333-10.994a13.94 13.94 0 0114.727-1.585 13.985 13.985 0 017.86 12.577v.004z"/></g></g></svg>