<svg xmlns="http://www.w3.org/2000/svg" width="64" height="64" style="background:#1a1f71"><g fill="none" fill-rule="evenodd"><path fill="#1A1F71" d="M0 0h64v64H0z"/><path fill="#F2F2F2" d="M14.582 32.544l.004.01.432 2.447 4.32-11.777 4.536.223-6.914 17.109h-4.534l-3.888-15.11c.178.099.353.2.525.306A13.744 13.744 0 004 23.667v-.443h7.13c.862 0 1.728.667 1.942 1.554l1.514 7.776a13.477 13.477 0 00-.004-.01zm34.564 1.79h3.672c-.218-.889-1.08-4.888-1.08-4.888l-.218-1.555c-.214.664-.646 1.555-.646 1.555s-1.296 4-1.728 4.888zm5.4-11.11L58 40.331h-4.32s-.214-1.997-.43-2.664h-5.616c-.216.442-.864 2.664-.864 2.664h-4.536l6.48-15.773c.432-.891 1.296-1.558 2.376-1.334h3.456zm-11.232.443l-.648 3.777h-.216c-1.08-.444-2.16-.664-3.24-.664-1.73 0-2.592.888-2.592 1.555 0 .886.862 1.33 2.376 2.222 2.592 1.11 3.672 2.666 3.672 4.664 0 3.557-3.026 5.779-7.56 5.779-1.728 0-3.456-.224-4.968-.889l.648-3.78.648.225c1.296.667 2.592.887 4.104.887 1.08.224 2.376-.665 2.592-1.776.216-.89-.432-1.333-2.16-2.222-2.16-.666-3.672-2.444-3.89-4.666 0-3.557 3.026-5.779 7.346-5.779 1.294 0 2.592.224 3.888.667zM23.01 40.556l2.808-17.11h4.32l-2.808 17.11h-4.32z"/></g></svg>