<svg xmlns="http://www.w3.org/2000/svg" width="32" height="32" fill="none"><path fill="#AB98FE" d="M0 13c0-3.771 0-5.657 1.172-6.828C2.343 5 4.229 5 8 5h14c3.771 0 5.657 0 6.828 1.172C30 7.343 30 9.229 30 13v6c0 3.771 0 5.657-1.172 6.828C27.657 27 25.771 27 22 27H8c-3.771 0-5.657 0-6.828-1.172C0 24.657 0 22.771 0 19v-6z"/><path fill="#151922" d="M0 19.6v1c0 2.24 0 3.36.436 4.216a3.996 3.996 0 001.748 1.748C3.04 27 4.16 27 6.4 27h17.2c2.24 0 3.36 0 4.216-.436a4.001 4.001 0 001.748-1.748C30 23.96 30 22.84 30 20.6v-1c0 2.24 0 3.36-.436 4.216a4.001 4.001 0 01-1.748 1.748C26.96 26 25.84 26 23.6 26H6.4c-2.24 0-3.36 0-4.216-.436a3.996 3.996 0 01-1.748-1.748C0 22.96 0 21.84 0 19.6z" opacity=".14"/><g filter="url(#filter0_d)"><path fill="#fff" d="M3 21a1 1 0 011-1h3a1 1 0 010 2H4a1 1 0 01-1-1z"/></g><g filter="url(#filter1_d)"><path fill="#fff" d="M9 21a1 1 0 011-1h3a1 1 0 010 2h-3a1 1 0 01-1-1z"/></g><g filter="url(#filter2_d)"><path fill="#fff" d="M15 21a1 1 0 011-1h3a1 1 0 010 2h-3a1 1 0 01-1-1z"/></g><g filter="url(#filter3_d)"><path fill="#fff" d="M21 21a1 1 0 011-1h3a1 1 0 010 2h-3a1 1 0 01-1-1z"/></g><path fill="#151922" d="M3 16.5v-3a1 1 0 011-1h3.586c.265 0 .52.105.707.293l1.414 1.414a1 1 0 01.293.707V16.5a1 1 0 01-1 1H4a1 1 0 01-1-1z" opacity=".15"/><path fill="#fff" d="M3 15.75v-2.5c0-.69.56-1.25 1.25-1.25h3.232c.332 0 .65.132.884.366l1.268 1.268c.234.234.366.552.366.884v1.232c0 .69-.56 1.25-1.25 1.25h-4.5C3.56 17 3 16.44 3 15.75z"/><path fill="#383C43" d="M31 7.5a6.5 6.5 0 11-13 0 6.5 6.5 0 0113 0z"/><path fill="#fff" fill-rule="evenodd" d="M32 7.5a7.5 7.5 0 11-15 0 7.5 7.5 0 0115 0zM24.5 14a6.5 6.5 0 100-13 6.5 6.5 0 000 13z" clip-rule="evenodd"/><path fill="#fff" fill-rule="evenodd" d="M25 4h-1v3h-3v1h3v3h1V8h3V7h-3V4z" clip-rule="evenodd"/><defs><filter id="filter0_d" width="5" height="2.5" x="3" y="20" color-interpolation-filters="sRGB" filterUnits="userSpaceOnUse"><feFlood flood-opacity="0" result="BackgroundImageFix"/><feColorMatrix in="SourceAlpha" values="0 0 0 0 0 0 0 0 0 0 0 0 0 0 0 0 0 0 127 0"/><feOffset dy=".5"/><feColorMatrix values="0 0 0 0 0 0 0 0 0 0 0 0 0 0 0 0 0 0 0.15 0"/><feBlend in2="BackgroundImageFix" result="effect1_dropShadow"/><feBlend in="SourceGraphic" in2="effect1_dropShadow" result="shape"/></filter><filter id="filter1_d" width="5" height="2.5" x="9" y="20" color-interpolation-filters="sRGB" filterUnits="userSpaceOnUse"><feFlood flood-opacity="0" result="BackgroundImageFix"/><feColorMatrix in="SourceAlpha" values="0 0 0 0 0 0 0 0 0 0 0 0 0 0 0 0 0 0 127 0"/><feOffset dy=".5"/><feColorMatrix values="0 0 0 0 0 0 0 0 0 0 0 0 0 0 0 0 0 0 0.15 0"/><feBlend in2="BackgroundImageFix" result="effect1_dropShadow"/><feBlend in="SourceGraphic" in2="effect1_dropShadow" result="shape"/></filter><filter id="filter2_d" width="5" height="2.5" x="15" y="20" color-interpolation-filters="sRGB" filterUnits="userSpaceOnUse"><feFlood flood-opacity="0" result="BackgroundImageFix"/><feColorMatrix in="SourceAlpha" values="0 0 0 0 0 0 0 0 0 0 0 0 0 0 0 0 0 0 127 0"/><feOffset dy=".5"/><feColorMatrix values="0 0 0 0 0 0 0 0 0 0 0 0 0 0 0 0 0 0 0.15 0"/><feBlend in2="BackgroundImageFix" result="effect1_dropShadow"/><feBlend in="SourceGraphic" in2="effect1_dropShadow" result="shape"/></filter><filter id="filter3_d" width="5" height="2.5" x="21" y="20" color-interpolation-filters="sRGB" filterUnits="userSpaceOnUse"><feFlood flood-opacity="0" result="BackgroundImageFix"/><feColorMatrix in="SourceAlpha" values="0 0 0 0 0 0 0 0 0 0 0 0 0 0 0 0 0 0 127 0"/><feOffset dy=".5"/><feColorMatrix values="0 0 0 0 0 0 0 0 0 0 0 0 0 0 0 0 0 0 0.15 0"/><feBlend in2="BackgroundImageFix" result="effect1_dropShadow"/><feBlend in="SourceGraphic" in2="effect1_dropShadow" result="shape"/></filter></defs></svg>