<svg xmlns="http://www.w3.org/2000/svg" width="32" height="32"><path fill="#373B42" d="M12.95 28.95v-1.5h5.1v1.5h-5.1zm-1.275-2.7v1.95A2.475 2.475 0 019.2 30.675H6.5A2.475 2.475 0 014.025 28.2v-1.95H3.8a2.55 2.55 0 01-2.55-2.55V9.3A2.55 2.55 0 013.8 6.75h11.25V5.7a2.7 2.7 0 012.7-2.7h5.4a2.7 2.7 0 012.7 2.7v1.05h1.35a2.55 2.55 0 012.55 2.55v14.4a2.55 2.55 0 01-2.55 2.55H11.675zm0-1.5H27.2c.58 0 1.05-.47 1.05-1.05V9.3c0-.58-.47-1.05-1.05-1.05h-1.35v6.45a2.7 2.7 0 01-2.7 2.7h-5.4a2.7 2.7 0 01-2.7-2.7V8.25H3.8c-.58 0-1.05.47-1.05 1.05v14.4c0 .58.47 1.05 1.05 1.05h.225V21.9A2.475 2.475 0 016.5 19.425h2.7a2.475 2.475 0 012.475 2.475v2.85zM6.5 20.775c-.621 0-1.125.504-1.125 1.125v6.3c0 .621.504 1.125 1.125 1.125h2.7c.621 0 1.125-.504 1.125-1.125v-6.3c0-.621-.504-1.125-1.125-1.125H6.5zM17.75 4.5a1.2 1.2 0 00-1.2 1.2v9a1.2 1.2 0 001.2 1.2h5.4a1.2 1.2 0 001.2-1.2v-9a1.2 1.2 0 00-1.2-1.2h-5.4zm2.7 10.65a.9.9 0 110-1.8.9.9 0 010 1.8zm-12.6 13.5a.9.9 0 110-1.8.9.9 0 010 1.8z"/></svg>