<svg xmlns="http://www.w3.org/2000/svg" width="32" height="32"><path fill="#8A8C91" d="M11.5 0c.146 0 .284.064.378.172l.05.07L14.784 5H31.5a.5.5 0 01.469.326l.023.084.008.09v20a6.5 6.5 0 01-11.977 3.501L3.5 29a3.5 3.5 0 01-3.495-3.308L0 25.5V.5A.5.5 0 01.41.008L.5 0h11zM26 22v3h3v1h-3v3h-1v-3h-3v-1h3v-3h1zM11.217 1H1v24.5a2.5 2.5 0 002.174 2.479l.162.016L3.5 28h15.998a6.5 6.5 0 0111.503-5.964L31 6H14.5a.499.499 0 01-.316-.113l-.062-.06-.05-.07L11.216 1zm19.77 24.89l.002-.048-.003.039.005-.055v-.023l.007-.14L31 25.5a5.5 5.5 0 10-11 0 5.474 5.474 0 001.054 3.238l.062.083.135.172A5.495 5.495 0 0025.5 31a5.499 5.499 0 004.68-2.608l.042-.07.024-.04.037-.068.117-.213c.043-.085.085-.171.124-.258l.008-.022.006-.013.005-.011.005-.013.03-.067.028-.072.011-.028.002-.005.019-.05.088-.243a5.446 5.446 0 00.242-1.12l.01-.115.002-.022.006-.072z"/></svg>