<svg xmlns="http://www.w3.org/2000/svg" width="32" height="32"><g fill="none" fill-rule="evenodd"><path fill="#FFED71" d="M3 0h20.343a4 4 0 012.829 1.172l4.656 4.656A4 4 0 0132 8.657V29a3 3 0 01-3 3H3a3 3 0 01-3-3V3a3 3 0 013-3z"/><path fill="#CCBD5A" d="M24 .054a4 4 0 012.172 1.118l4.656 4.656A4 4 0 0131.946 8H26a2 2 0 01-2-2V.054z"/><path fill="#000" d="M5 20h20v1H5v-1zm0 3h14v1H5v-1zm0 3h18v1H5v-1z" opacity=".2"/><path fill="#111" fill-rule="nonzero" d="M14.854 7.718a.538.538 0 010 .738l-6 6.26a.495.495 0 01-.233.138L5.5 15.913l1.015-3.257a.528.528 0 01.131-.242l6-6.261a.485.485 0 01.707 0l1.5 1.565zM5 17h15v1H5v-1z"/></g></svg>