<svg width="48" height="48" fill="none" xmlns="http://www.w3.org/2000/svg"><rect width="48" height="48" rx="24" fill="url(#paint0_linear)"/><path fill="#F2F2F7" d="M13 20h22v8H13z"/><path d="M19.565 15.767v.99h8.891v-.99c0-.556-.377-.915-.959-.915h-6.983c-.582 0-.949.36-.949.915zm4.44 7.428c-4.192 0-8.05-.577-12.005-2.233v-.882c0-2.222 1.11-3.322 3.33-3.322h2.285v-1.1c0-1.645 1.067-2.658 2.78-2.658h7.21c1.724 0 2.791 1.013 2.791 2.658v1.1h2.274c2.23 0 3.33 1.1 3.33 3.322v.882c-3.955 1.656-7.813 2.233-11.995 2.233zM15.33 34C13.11 34 12 32.91 12 30.678v-7.919a33.296 33.296 0 009.139 1.928v.883c0 .773.43 1.198 1.185 1.198h3.352c.765 0 1.196-.425 1.196-1.198v-.883A33.306 33.306 0 0036 22.76v7.919C36 32.91 34.9 34 32.67 34H15.33z" fill="#101010"/><defs><linearGradient id="paint0_linear" x1="0" y1="0" x2="0" y2="48" gradientUnits="userSpaceOnUse"><stop stop-color="#FFEB8B"/><stop offset="1" stop-color="#EBB439"/></linearGradient></defs></svg>