<svg xmlns="http://www.w3.org/2000/svg" width="32" height="31"><path fill="#8A8C91" fill-rule="evenodd" d="M19.5 20v7h-7v-7h-3v-7.5A3.5 3.5 0 0113 9h6a3.5 3.5 0 013.5 3.5V20h-3zm-1 6v-7h3v-6.5A2.5 2.5 0 0019 10h-6a2.5 2.5 0 00-2.5 2.5V19h3v7h5zM16 7a3.5 3.5 0 110-7 3.5 3.5 0 010 7zm0-1a2.5 2.5 0 100-5 2.5 2.5 0 000 5zm6.939 18.4l.122-.992c5.176.638 8.439 1.875 8.439 3.592 0 2.398-6.865 4-15.5 4S.5 29.398.5 27c0-1.717 3.263-2.954 8.439-3.592l.122.992C4.475 24.966 1.5 26.094 1.5 27c0 1.468 6.566 3 14.5 3s14.5-1.532 14.5-3c0-.906-2.975-2.034-7.561-2.6z"/></svg>