<svg xmlns="http://www.w3.org/2000/svg" width="32" height="32"><path d="M12.25 15.75a5.25 5.25 0 110-10.5 5.25 5.25 0 010 10.5zm0-1.5a3.75 3.75 0 100-7.5 3.75 3.75 0 000 7.5zm10.5 0a3.75 3.75 0 110-7.5 3.75 3.75 0 010 7.5zm0-1.5a2.25 2.25 0 100-4.5 2.25 2.25 0 000 4.5zm-10.5 4.5a8.25 8.25 0 018.25 8.25.75.75 0 01-.75.75h-15A.75.75 0 014 25.5a8.25 8.25 0 018.25-8.25zm-6.709 7.5H18.96a6.751 6.751 0 00-13.418 0zm17.209-3h3.75V21a3.75 3.75 0 00-5.823-3.126.75.75 0 01-.831-1.248A5.25 5.25 0 0128 21v1.5a.75.75 0 01-.75.75h-4.5a.75.75 0 110-1.5z"/></svg>