<svg xmlns="http://www.w3.org/2000/svg" width="40" height="40"><g fill="none" fill-rule="evenodd"><rect width="40" height="30" y="9" fill="#B3BEC5" rx="3"/><path fill="#163A47" d="M20 1a3.913 3.913 0 013.913 3.913v9.13h-7.826v-9.13A3.913 3.913 0 0120 1z"/><path fill="#FFF" fill-rule="nonzero" d="M31.74 22.435a.87.87 0 01.109 1.732l-.11.007h-7.826a.87.87 0 01-.109-1.732l.109-.007h7.826zm0 5.825a.87.87 0 01.109 1.733l-.11.007h-7.826a.87.87 0 01-.109-1.732l.109-.007h7.826zm-15.653-6.825H8.261a.87.87 0 00-.87.87v7.825c0 .48.39.87.87.87h7.826c.48 0 .87-.39.87-.87v-7.826a.87.87 0 00-.87-.87z"/></g></svg>