<svg xmlns="http://www.w3.org/2000/svg" xmlns:xlink="http://www.w3.org/1999/xlink" width="72" height="72"><defs><linearGradient id="b" x1="50%" x2="50%" y1="0%" y2="100%"><stop offset="0%" stop-color="#43445D"/><stop offset="100%" stop-color="#202139"/></linearGradient><path id="a" d="M23.075 0h25.85c8.024 0 10.933.835 13.867 2.404a16.361 16.361 0 016.804 6.804C71.165 12.142 72 15.051 72 23.075v25.85c0 8.024-.835 10.933-2.404 13.867a16.361 16.361 0 01-6.804 6.804C59.858 71.165 56.949 72 48.925 72h-25.85c-8.024 0-10.933-.835-13.867-2.404a16.361 16.361 0 01-6.804-6.804C.835 59.858 0 56.949 0 48.925v-25.85c0-8.024.835-10.933 2.404-13.867a16.361 16.361 0 016.804-6.804C12.142.835 15.051 0 23.075 0z"/></defs><g fill="none" fill-rule="evenodd"><mask id="c" fill="#fff"><use xlink:href="#a"/></mask><use fill="url(#b)" xlink:href="#a"/><path fill="#FFF" fill-rule="nonzero" d="M43.962 55c2.376 0 3.77-1.25 3.873-3.615l1.12-24.688h2.513A1.51 1.51 0 0053 25.172c0-.84-.671-1.507-1.532-1.507h-7.644v-2.33C43.824 18.696 42 17 39.073 17h-6.146c-2.926 0-4.751 1.696-4.751 4.335v2.33h-7.644c-.843 0-1.532.668-1.532 1.507 0 .857.689 1.525 1.532 1.525h2.548l1.102 24.688C24.285 53.749 25.679 55 28.055 55h15.907zm-3.34-31.335h-9.21v-2.176c0-.943.706-1.61 1.722-1.61h5.75c1.015 0 1.721.667 1.721 1.61l.017 2.176zM29.95 50.203c-.654 0-1.136-.565-1.17-1.336l-.707-18.486c-.017-.754.517-1.337 1.188-1.337.654 0 1.188.6 1.223 1.32l.654 18.485c.017.754-.482 1.354-1.188 1.354zm6.06 0c-.655 0-1.223-.6-1.223-1.336V30.363c0-.72.568-1.319 1.223-1.319.654 0 1.24.6 1.24 1.32l-.018 18.503c0 .736-.568 1.336-1.222 1.336zm6.06 0c-.706 0-1.206-.6-1.188-1.354l.67-18.486c.018-.72.569-1.319 1.223-1.319.672 0 1.205.583 1.188 1.337l-.723 18.486c-.017.77-.516 1.336-1.17 1.336z" mask="url(#c)"/></g></svg>