<svg xmlns="http://www.w3.org/2000/svg" width="72" height="72"><defs><linearGradient id="a" x1="50%" x2="50%" y1="0%" y2="100%"><stop offset="0%" stop-color="#5B97EF"/><stop offset="100%" stop-color="#5B75EF"/></linearGradient></defs><g fill="none" fill-rule="evenodd"><path fill="url(#a)" d="M23.075 0h25.85c8.024 0 10.933.835 13.867 2.404a16.361 16.361 0 016.804 6.804C71.165 12.142 72 15.051 72 23.075v25.85c0 8.024-.835 10.933-2.404 13.867a16.361 16.361 0 01-6.804 6.804C59.858 71.165 56.949 72 48.925 72h-25.85c-8.024 0-10.933-.835-13.867-2.404a16.361 16.361 0 01-6.804-6.804C.835 59.858 0 56.949 0 48.925v-25.85c0-8.024.835-10.933 2.404-13.867a16.361 16.361 0 016.804-6.804C12.142.835 15.051 0 23.075 0z"/><path fill="#FFF" fill-rule="nonzero" d="M56 30.851v-1.823c0-3.783-2.038-5.83-5.839-5.83H34.493c-1.284 0-2.055-.292-3.065-1.1l-.925-.757C29.236 20.327 28.346 20 26.463 20H21.41C18.038 20 16 22.012 16 25.76v5.091h40zM50.503 53C53.98 53 56 50.954 56 47.17V33.5H16v13.67c0 3.8 2.038 5.83 5.839 5.83h28.664z"/></g></svg>