<svg xmlns="http://www.w3.org/2000/svg" width="72" height="72"><defs><linearGradient id="a" x1="50%" x2="50%" y1="100%" y2="0%"><stop offset="0%" stop-color="#F9B151"/><stop offset="100%" stop-color="#EEC242"/></linearGradient></defs><g fill="none" fill-rule="evenodd"><path fill="url(#a)" d="M23.075 0h25.85c8.024 0 10.933.835 13.867 2.404a16.361 16.361 0 016.804 6.804C71.165 12.142 72 15.051 72 23.075v25.85c0 8.024-.835 10.933-2.404 13.867a16.361 16.361 0 01-6.804 6.804C59.858 71.165 56.949 72 48.925 72h-25.85c-8.024 0-10.933-.835-13.867-2.404a16.361 16.361 0 01-6.804-6.804C.835 59.858 0 56.949 0 48.925v-25.85c0-8.024.835-10.933 2.404-13.867a16.361 16.361 0 016.804-6.804C12.142.835 15.051 0 23.075 0z"/><path fill="#FFF" fill-rule="nonzero" d="M46.43 57c4.22 0 6.57-2.417 6.57-6.794V33.65H38.249c-2.202 0-3.313-1.142-3.313-3.407V15H26.57C22.332 15 20 17.417 20 21.794v28.412C20 54.583 22.332 57 26.57 57h19.86zm6.403-26.49c-.074-.99-.85-1.941-1.943-3.083l-9.957-10.315c-1.037-1.084-1.98-1.865-2.962-1.96V29.33c.019.8.408 1.18 1.185 1.18h13.677zm-9.18 11.266H29.365c-.907 0-1.573-.666-1.573-1.56 0-.895.666-1.58 1.573-1.58h14.288c.87 0 1.555.685 1.555 1.58 0 .875-.685 1.56-1.555 1.56zm0 7.422H29.365c-.907 0-1.573-.686-1.573-1.58 0-.875.666-1.56 1.573-1.56h14.288c.87 0 1.555.685 1.555 1.56 0 .894-.685 1.58-1.555 1.58z"/></g></svg>