<svg xmlns="http://www.w3.org/2000/svg" xmlns:xlink="http://www.w3.org/1999/xlink" width="72" height="72"><defs><linearGradient id="b" x1="50.177%" x2="50.177%" y1=".672%" y2="100%"><stop offset="0%" stop-color="#E28B68"/><stop offset="100%" stop-color="#E26A68"/></linearGradient><path id="a" d="M23.075 0h25.85c8.024 0 10.933.835 13.867 2.404a16.361 16.361 0 016.804 6.804C71.165 12.142 72 15.051 72 23.075v25.85c0 8.024-.835 10.933-2.404 13.867a16.361 16.361 0 01-6.804 6.804C59.858 71.165 56.949 72 48.925 72h-25.85c-8.024 0-10.933-.835-13.867-2.404a16.361 16.361 0 01-6.804-6.804C.835 59.858 0 56.949 0 48.925v-25.85c0-8.024.835-10.933 2.404-13.867a16.361 16.361 0 016.804-6.804C12.142.835 15.051 0 23.075 0z"/></defs><g fill="none" fill-rule="evenodd"><mask id="c" fill="#fff"><use xlink:href="#a"/></mask><use fill="url(#b)" xlink:href="#a"/><path fill="#FFF" fill-rule="nonzero" d="M48.197 17.445C48.079 15.841 47.155 15 45.405 15H26.968c-1.73 0-2.654.841-2.771 2.445h24zm3.636 5.204c-.256-1.702-1.1-2.66-3.007-2.66H23.214c-1.907 0-2.752.958-3.027 2.66h31.646zM50.083 57C53.996 57 56 55.044 56 51.17V31.49c0-3.853-2.005-5.829-5.916-5.829H21.936c-3.95 0-5.936 1.957-5.936 5.83v19.68C16 55.043 17.985 57 21.936 57h28.148zM36.03 44.52c-3.125-.02-5.66-2.642-5.66-6.143 0-3.287 2.535-5.986 5.66-5.986 3.126 0 5.642 2.7 5.642 5.986 0 3.501-2.516 6.181-5.642 6.142zm11.46 9.291H24.53c1.513-3.032 5.268-6.67 11.46-6.67 6.19 0 9.984 3.638 11.498 6.67z" mask="url(#c)"/></g></svg>