<svg xmlns="http://www.w3.org/2000/svg" xmlns:xlink="http://www.w3.org/1999/xlink" width="152" height="88"><defs><path id="a" d="M17.947 0h20.106c6.24 0 8.503.65 10.785 1.87a12.718 12.718 0 015.292 5.292C55.35 9.444 56 11.707 56 17.947v20.106c0 6.24-.65 8.503-1.87 10.785a12.718 12.718 0 01-5.292 5.292C46.556 55.35 44.293 56 38.053 56H17.947c-6.24 0-8.503-.65-10.785-1.87a12.718 12.718 0 01-5.292-5.292C.65 46.556 0 44.293 0 38.053V17.947c0-6.24.65-8.503 1.87-10.785A12.718 12.718 0 017.162 1.87C9.444.65 11.707 0 17.947 0z"/><path id="d" d="M17.947 0h20.106c6.24 0 8.503.65 10.785 1.87a12.718 12.718 0 015.292 5.292C55.35 9.444 56 11.707 56 17.947v20.106c0 6.24-.65 8.503-1.87 10.785a12.718 12.718 0 01-5.292 5.292C46.556 55.35 44.293 56 38.053 56H17.947c-6.24 0-8.503-.65-10.785-1.87a12.718 12.718 0 01-5.292-5.292C.65 46.556 0 44.293 0 38.053V17.947c0-6.24.65-8.503 1.87-10.785A12.718 12.718 0 017.162 1.87C9.444.65 11.707 0 17.947 0z"/><path id="h" d="M23.075 0h25.85c8.024 0 10.933.835 13.867 2.404a16.361 16.361 0 016.804 6.804C71.165 12.142 72 15.051 72 23.075v25.85c0 8.024-.835 10.933-2.404 13.867a16.361 16.361 0 01-6.804 6.804C59.858 71.165 56.949 72 48.925 72h-25.85c-8.024 0-10.933-.835-13.867-2.404a16.361 16.361 0 01-6.804-6.804C.835 59.858 0 56.949 0 48.925v-25.85c0-8.024.835-10.933 2.404-13.867a16.361 16.361 0 016.804-6.804C12.142.835 15.051 0 23.075 0z"/><path id="k" d="M43.161 18H22.342v8.5h11.984c-1.117 5.4-5.789 8.5-11.984 8.5C15.03 35 9.14 29.2 9.14 22S15.03 9 22.342 9c3.149 0 5.992 1.1 8.226 2.9l6.5-6.4C33.108 2.1 28.03 0 22.342 0 9.952 0 0 9.8 0 22s9.953 22 22.342 22c11.172 0 21.327-8 21.327-22 0-1.3-.203-2.7-.508-4z"/><path id="m" d="M43.161 18H22.342v8.5h11.984c-1.117 5.4-5.789 8.5-11.984 8.5C15.03 35 9.14 29.2 9.14 22S15.03 9 22.342 9c3.149 0 5.992 1.1 8.226 2.9l6.5-6.4C33.108 2.1 28.03 0 22.342 0 9.952 0 0 9.8 0 22s9.953 22 22.342 22c11.172 0 21.327-8 21.327-22 0-1.3-.203-2.7-.508-4z"/><path id="o" d="M43.161 18H22.342v8.5h11.984c-1.117 5.4-5.789 8.5-11.984 8.5C15.03 35 9.14 29.2 9.14 22S15.03 9 22.342 9c3.149 0 5.992 1.1 8.226 2.9l6.5-6.4C33.108 2.1 28.03 0 22.342 0 9.952 0 0 9.8 0 22s9.953 22 22.342 22c11.172 0 21.327-8 21.327-22 0-1.3-.203-2.7-.508-4z"/><path id="q" d="M43.161 18H22.342v8.5h11.984c-1.117 5.4-5.789 8.5-11.984 8.5C15.03 35 9.14 29.2 9.14 22S15.03 9 22.342 9c3.149 0 5.992 1.1 8.226 2.9l6.5-6.4C33.108 2.1 28.03 0 22.342 0 9.952 0 0 9.8 0 22s9.953 22 22.342 22c11.172 0 21.327-8 21.327-22 0-1.3-.203-2.7-.508-4z"/><linearGradient id="b" x1="50%" x2="50%" y1="0%" y2="100%"><stop offset="0%" stop-color="#43445D"/><stop offset="100%" stop-color="#202139"/></linearGradient><linearGradient id="e" x1="50%" x2="50%" y1="100%" y2="0%"><stop offset="0%" stop-color="#F9B151"/><stop offset="100%" stop-color="#EEC242"/></linearGradient><linearGradient id="i" x1="50%" x2="50%" y1="50%" y2="100%"><stop offset="0%" stop-opacity="0"/><stop offset="100%" stop-color="#050412"/></linearGradient><filter id="g" width="155.6%" height="155.6%" x="-27.8%" y="-27.8%" filterUnits="objectBoundingBox"><feOffset dy="2" in="SourceAlpha" result="shadowOffsetOuter1"/><feGaussianBlur in="shadowOffsetOuter1" result="shadowBlurOuter1" stdDeviation="4"/><feColorMatrix in="shadowBlurOuter1" result="shadowMatrixOuter1" values="0 0 0 0 0 0 0 0 0 0 0 0 0 0 0 0 0 0 0.15 0"/><feMerge><feMergeNode in="shadowMatrixOuter1"/><feMergeNode in="SourceGraphic"/></feMerge></filter></defs><g fill="none" fill-rule="evenodd"><g transform="translate(96 16)"><mask id="c" fill="#fff"><use xlink:href="#a"/></mask><use fill="url(#b)" xlink:href="#a"/><g mask="url(#c)"><g transform="translate(1 1)" fill-rule="nonzero"><ellipse cx="20.025" cy="26.867" fill="#E61C24" rx="10.68" ry="10.847"/><ellipse cx="33.287" cy="26.867" fill="#F99F1B" rx="10.68" ry="10.847"/><path fill="#F26622" d="M26.656 18.374a10.89 10.89 0 00-4.05 8.493c0 3.31 1.493 6.44 4.05 8.493 2.557-2.053 4.049-5.182 4.049-8.493s-1.492-6.44-4.05-8.493z"/></g></g></g><g transform="translate(0 16)"><mask id="f" fill="#fff"><use xlink:href="#d"/></mask><use fill="url(#e)" xlink:href="#d"/><g fill="#FFF" fill-rule="nonzero" mask="url(#f)"><path d="M35.624 43.968c3.453 0 5.376-1.955 5.376-5.495v-13.39H28.931c-1.802 0-2.71-.923-2.71-2.755V10h-6.845C15.908 10 14 11.955 14 15.495v22.978c0 3.54 1.908 5.495 5.376 5.495h16.248zm5.24-21.424c-.06-.8-.697-1.57-1.59-2.494l-8.147-8.342c-.848-.877-1.62-1.508-2.423-1.585V21.59c.015.647.333.955.969.955h11.19zm-7.511 9.111h-11.69c-.743 0-1.288-.539-1.288-1.262s.545-1.277 1.287-1.277h11.69c.712 0 1.273.554 1.273 1.277 0 .708-.56 1.262-1.272 1.262zm0 6.002h-11.69c-.743 0-1.288-.554-1.288-1.277 0-.708.545-1.262 1.287-1.262h11.69c.712 0 1.273.554 1.273 1.262 0 .723-.56 1.277-1.272 1.277z"/></g></g><g filter="url(#g)" transform="translate(40 6)"><mask id="j" fill="#fff"><use xlink:href="#h"/></mask><use fill="#FFF" xlink:href="#h"/><use fill="url(#i)" fill-opacity=".03" xlink:href="#h"/><g mask="url(#j)"><g transform="translate(14 15)"><mask id="l" fill="#fff"><use xlink:href="#k"/></mask><path fill="#FBBC05" d="M-2.031 35V9l17.264 13z" mask="url(#l)"/><mask id="n" fill="#fff"><use xlink:href="#m"/></mask><path fill="#EA4335" d="M-2.031 9l17.264 13 7.109-6.1L46.716 12V-2H-2.031z" mask="url(#n)"/><mask id="p" fill="#fff"><use xlink:href="#o"/></mask><path fill="#34A853" d="M-2.031 35l30.467-23 8.023 1L46.716-2v48H-2.031z" mask="url(#p)"/><mask id="r" fill="#fff"><use xlink:href="#q"/></mask><path fill="#4285F4" d="M46.716 46L15.233 22l-4.062-3L46.716 9z" mask="url(#r)"/></g></g></g></g></svg>