<svg xmlns="http://www.w3.org/2000/svg" xmlns:xlink="http://www.w3.org/1999/xlink" width="152" height="88"><defs><linearGradient id="b" x1="50%" x2="50%" y1="0%" y2="100%"><stop offset="0%" stop-color="#43445D"/><stop offset="100%" stop-color="#202139"/></linearGradient><linearGradient id="e" x1="50%" x2="50%" y1="0%" y2="100%"><stop offset="0%" stop-color="#047FEB"/><stop offset="100%" stop-color="#0358C2"/></linearGradient><linearGradient id="h" x1="50.177%" x2="50.143%" y1=".672%" y2="100%"><stop offset="0%" stop-color="#2A5DE4"/><stop offset="100%" stop-color="#3001B1"/></linearGradient><path id="a" d="M17.947 0h20.106c6.24 0 8.503.65 10.785 1.87a12.718 12.718 0 015.292 5.292C55.35 9.444 56 11.707 56 17.947v20.106c0 6.24-.65 8.503-1.87 10.785a12.718 12.718 0 01-5.292 5.292C46.556 55.35 44.293 56 38.053 56H17.947c-6.24 0-8.503-.65-10.785-1.87a12.718 12.718 0 01-5.292-5.292C.65 46.556 0 44.293 0 38.053V17.947c0-6.24.65-8.503 1.87-10.785A12.718 12.718 0 017.162 1.87C9.444.65 11.707 0 17.947 0z"/><path id="d" d="M17.947 0h20.106c6.24 0 8.503.65 10.785 1.87a12.718 12.718 0 015.292 5.292C55.35 9.444 56 11.707 56 17.947v20.106c0 6.24-.65 8.503-1.87 10.785a12.718 12.718 0 01-5.292 5.292C46.556 55.35 44.293 56 38.053 56H17.947c-6.24 0-8.503-.65-10.785-1.87a12.718 12.718 0 01-5.292-5.292C.65 46.556 0 44.293 0 38.053V17.947c0-6.24.65-8.503 1.87-10.785A12.718 12.718 0 017.162 1.87C9.444.65 11.707 0 17.947 0z"/><filter id="g" width="155.6%" height="155.6%" x="-27.8%" y="-27.8%" filterUnits="objectBoundingBox"><feOffset dy="2" in="SourceAlpha" result="shadowOffsetOuter1"/><feGaussianBlur in="shadowOffsetOuter1" result="shadowBlurOuter1" stdDeviation="4"/><feColorMatrix in="shadowBlurOuter1" result="shadowMatrixOuter1" values="0 0 0 0 0 0 0 0 0 0 0 0 0 0 0 0 0 0 0.15 0"/><feMerge><feMergeNode in="shadowMatrixOuter1"/><feMergeNode in="SourceGraphic"/></feMerge></filter></defs><g fill="none" fill-rule="evenodd"><g transform="translate(0 16)"><mask id="c" fill="#fff"><use xlink:href="#a"/></mask><use fill="url(#b)" xlink:href="#a"/><g fill-rule="nonzero" mask="url(#c)"><g transform="translate(9 16)"><ellipse cx="11.807" cy="12.182" fill="#E61C24" rx="11.076" ry="11.249"/><ellipse cx="25.56" cy="12.182" fill="#F99F1B" rx="11.076" ry="11.249"/><path fill="#F26622" d="M18.683 3.374a11.294 11.294 0 00-4.199 8.808c0 3.433 1.547 6.678 4.2 8.808a11.298 11.298 0 004.198-8.808c0-3.434-1.547-6.678-4.199-8.808z"/></g></g></g><g transform="translate(96 16)"><mask id="f" fill="#fff"><use xlink:href="#d"/></mask><use fill="url(#e)" xlink:href="#d"/><g mask="url(#f)"><path fill="#FFFFFE" d="M24.054 45.473V27.406l32.157.029v4.991l-3.717 3.972 3.717 4.008v5.096h-5.934l-3.154-3.48-3.131 3.494-19.938-.043"/><path fill="#016FD0" d="M26.202 43.492V29.394h11.954v3.248h-8.084v2.205h7.891v3.193h-7.891v2.166h8.084v3.286H26.202"/><path fill="#016FD0" d="M38.096 43.492l6.615-7.057-6.615-7.04h5.12l4.042 4.468 4.053-4.468h4.9v.111l-6.474 6.929 6.474 6.857v.2h-4.949l-4.114-4.513-4.071 4.513h-4.981"/><path fill="#FFFFFE" d="M25.554 11.37h7.751l2.723 6.182V11.37h9.569l1.651 4.632 1.655-4.632h7.308v18.067H17.593l7.961-18.067"/><path fill="#016FD0" d="M27.022 13.333l-6.256 14.086h4.29l1.18-2.82h6.395l1.18 2.82h4.397l-6.23-14.086h-4.955zm.537 8.104l1.876-4.484 1.875 4.484h-3.75z"/><path fill="#016FD0" d="M38.149 27.417V13.331l6.031.02 3.103 8.66 3.124-8.68h5.804v14.086l-3.735.033v-9.676l-3.526 9.643h-3.409l-3.599-9.676v9.676h-3.793"/></g></g><g filter="url(#g)" transform="translate(40 6)"><path fill="url(#h)" d="M23.075 0h25.85c8.024 0 10.933.835 13.867 2.404a16.361 16.361 0 016.804 6.804C71.165 12.142 72 15.051 72 23.075v25.85c0 8.024-.835 10.933-2.404 13.867a16.361 16.361 0 01-6.804 6.804C59.858 71.165 56.949 72 48.925 72h-25.85c-8.024 0-10.933-.835-13.867-2.404a16.361 16.361 0 01-6.804-6.804C.835 59.858 0 56.949 0 48.925v-25.85c0-8.024.835-10.933 2.404-13.867a16.361 16.361 0 016.804-6.804C12.142.835 15.051 0 23.075 0z"/><path fill="#FDFEFE" d="M36.434 35.244c-.032 2.543 2.195 3.962 3.872 4.805 1.723.866 2.302 1.421 2.296 2.195-.014 1.185-1.375 1.708-2.65 1.728-2.223.036-3.515-.62-4.543-1.115l-.8 3.868c1.03.49 2.94.918 4.92.937 4.646 0 7.687-2.368 7.703-6.04.018-4.659-6.244-4.917-6.2-7 .014-.63.598-1.305 1.877-1.476.633-.087 2.381-.153 4.363.79l.777-3.743c-1.065-.4-2.435-.785-4.14-.785-4.374 0-7.45 2.4-7.475 5.836m19.089-5.513c-.849 0-1.564.51-1.883 1.295l-6.638 16.361h4.644l.924-2.636h5.674l.536 2.636h4.093l-3.571-17.656h-3.78m.65 4.77l1.34 6.63h-3.67l2.33-6.63m-25.369-4.77l-3.66 17.656h4.425l3.659-17.656h-4.424m-6.546 0l-4.606 12.017-1.863-10.218c-.219-1.14-1.082-1.799-2.04-1.799h-7.53l-.105.513c1.545.346 3.302.904 4.365 1.502.652.365.837.684 1.051 1.551l3.529 14.09h4.677l7.169-17.656h-4.647"/></g></g></svg>