<svg xmlns="http://www.w3.org/2000/svg" xmlns:xlink="http://www.w3.org/1999/xlink" width="152" height="88"><defs><linearGradient id="b" x1="10.098%" x2="85.498%" y1="0%" y2="94.977%"><stop offset="0%" stop-color="#FF585B"/><stop offset="100%" stop-color="#FF5687"/></linearGradient><linearGradient id="e" x1="50%" x2="50%" y1="0%" y2="100%"><stop offset="0%" stop-color="#444451"/><stop offset="100%" stop-color="#202139"/></linearGradient><linearGradient id="i" x1="26.563%" x2="26.563%" y1="8.919%" y2="107.702%"><stop offset="0%" stop-color="#4D74CB"/><stop offset="100%" stop-color="#2A2FA6"/></linearGradient><path id="a" d="M17.947 0h20.106c6.24 0 8.503.65 10.785 1.87a12.718 12.718 0 015.292 5.292C55.35 9.444 56 11.707 56 17.947v20.106c0 6.24-.65 8.503-1.87 10.785a12.718 12.718 0 01-5.292 5.292C46.556 55.35 44.293 56 38.053 56H17.947c-6.24 0-8.503-.65-10.785-1.87a12.718 12.718 0 01-5.292-5.292C.65 46.556 0 44.293 0 38.053V17.947c0-6.24.65-8.503 1.87-10.785A12.718 12.718 0 017.162 1.87C9.444.65 11.707 0 17.947 0z"/><path id="d" d="M17.947 0h20.106c6.24 0 8.503.65 10.785 1.87a12.718 12.718 0 015.292 5.292C55.35 9.444 56 11.707 56 17.947v20.106c0 6.24-.65 8.503-1.87 10.785a12.718 12.718 0 01-5.292 5.292C46.556 55.35 44.293 56 38.053 56H17.947c-6.24 0-8.503-.65-10.785-1.87a12.718 12.718 0 01-5.292-5.292C.65 46.556 0 44.293 0 38.053V17.947c0-6.24.65-8.503 1.87-10.785A12.718 12.718 0 017.162 1.87C9.444.65 11.707 0 17.947 0z"/><path id="h" d="M23.075 0h25.85c8.024 0 10.933.835 13.867 2.404a16.361 16.361 0 016.804 6.804C71.165 12.142 72 15.051 72 23.075v25.85c0 8.024-.835 10.933-2.404 13.867a16.361 16.361 0 01-6.804 6.804C59.858 71.165 56.949 72 48.925 72h-25.85c-8.024 0-10.933-.835-13.867-2.404a16.361 16.361 0 01-6.804-6.804C.835 59.858 0 56.949 0 48.925v-25.85c0-8.024.835-10.933 2.404-13.867a16.361 16.361 0 016.804-6.804C12.142.835 15.051 0 23.075 0z"/><filter id="g" width="155.6%" height="155.6%" x="-27.8%" y="-27.8%" filterUnits="objectBoundingBox"><feOffset dy="2" in="SourceAlpha" result="shadowOffsetOuter1"/><feGaussianBlur in="shadowOffsetOuter1" result="shadowBlurOuter1" stdDeviation="4"/><feColorMatrix in="shadowBlurOuter1" result="shadowMatrixOuter1" values="0 0 0 0 0 0 0 0 0 0 0 0 0 0 0 0 0 0 0.15 0"/><feMerge><feMergeNode in="shadowMatrixOuter1"/><feMergeNode in="SourceGraphic"/></feMerge></filter></defs><g fill="none" fill-rule="evenodd"><g transform="translate(96 16)"><mask id="c" fill="#fff"><use xlink:href="#a"/></mask><use fill="url(#b)" xlink:href="#a"/><path fill="#FFF" d="M43.562 35.454c-.167-.397-.334-.826-.501-1.19-.268-.594-.535-1.156-.768-1.684l-.034-.033a343.284 343.284 0 00-7.381-14.93l-.1-.2a61.37 61.37 0 01-.801-1.552c-.335-.595-.668-1.222-1.203-1.817C31.706 12.727 30.17 12 28.533 12c-1.67 0-3.173.727-4.275 1.982-.501.594-.869 1.222-1.202 1.817-.261.52-.528 1.038-.801 1.553l-.1.198c-2.573 4.955-5.077 9.976-7.382 14.93l-.034.066c-.233.53-.5 1.09-.768 1.685-.167.363-.334.76-.5 1.189-.435 1.222-.569 2.378-.401 3.568a7.033 7.033 0 004.342 5.483c.868.364 1.77.529 2.705.529.267 0 .6-.033.868-.066a8.876 8.876 0 003.34-1.123c1.37-.76 2.672-1.85 4.142-3.435 1.47 1.585 2.805 2.675 4.141 3.435A8.905 8.905 0 0036.817 45c.935 0 1.87-.165 2.705-.529a7.021 7.021 0 004.342-5.483c.265-1.156.132-2.312-.302-3.534zM28.499 37.17c-1.804-2.246-2.973-4.36-3.373-6.143-.167-.76-.2-1.42-.1-2.016a3.18 3.18 0 01.534-1.387c.635-.891 1.704-1.453 2.94-1.453s2.338.528 2.939 1.453c.267.396.467.86.535 1.387.1.595.066 1.289-.1 2.016-.403 1.75-1.572 3.864-3.375 6.143zm13.326 1.553c-.234 1.717-1.403 3.204-3.04 3.865-.8.33-1.67.43-2.537.33-.835-.1-1.67-.364-2.539-.859-1.202-.66-2.404-1.684-3.807-3.204 2.204-2.675 3.54-5.12 4.041-7.3a8.167 8.167 0 00.167-2.808 5.308 5.308 0 00-.902-2.246c-1.036-1.487-2.773-2.346-4.71-2.346-1.936 0-3.673.892-4.708 2.346a5.334 5.334 0 00-.902 2.246 6.8 6.8 0 00.167 2.808c.5 2.18 1.87 4.657 4.04 7.333-1.368 1.52-2.604 2.544-3.807 3.204-.868.496-1.703.76-2.538.86a5.427 5.427 0 01-2.538-.33c-1.636-.662-2.805-2.149-3.039-3.866a5.412 5.412 0 01.3-2.576c.1-.331.268-.661.435-1.057.234-.529.5-1.091.768-1.652l.034-.066a358.45 358.45 0 017.347-14.832l.1-.198c.268-.495.535-1.024.802-1.52.267-.528.567-1.024.935-1.453.701-.792 1.636-1.222 2.672-1.222 1.036 0 1.97.43 2.672 1.222.367.43.668.926.935 1.454.268.495.535 1.024.801 1.519l.1.198a435.273 435.273 0 017.315 14.865v.033c.268.53.501 1.123.769 1.653.166.395.334.725.434 1.056.266.858.366 1.684.233 2.543z" mask="url(#c)"/></g><g transform="translate(0 16)"><mask id="f" fill="#fff"><use xlink:href="#d"/></mask><use fill="url(#e)" xlink:href="#d"/><path fill="#11FF8E" d="M28 10c9.942 0 18 8.06 18 18 0 9.942-8.058 18-18 18-9.941 0-18-8.058-18-18 0-9.941 8.059-18 18-18zm8.317 23.644c-4.684-2.825-10.49-3.482-17.257-1.956a1.09 1.09 0 00-.833 1.309c.135.588.73.957 1.325.823 6.185-1.395 11.437-.825 15.609 1.69a1.115 1.115 0 001.523-.363 1.084 1.084 0 00-.367-1.503zm2.086-5.151c-5.485-3.327-13.507-4.263-19.96-2.33a1.367 1.367 0 00-.924 1.705c.223.722.997 1.13 1.73.911 5.648-1.692 12.928-.853 17.704 2.044a1.396 1.396 0 001.906-.45c.4-.642.195-1.484-.456-1.88zm2.339-5.914c-6.593-3.863-17.027-4.226-23.303-2.346a1.638 1.638 0 00-1.108 2.046 1.666 1.666 0 002.073 1.093c5.467-1.638 14.915-1.329 20.641 2.028a1.674 1.674 0 002.278-.573 1.627 1.627 0 00-.581-2.248z" mask="url(#f)"/></g><g filter="url(#g)" transform="translate(40 6)"><mask id="j" fill="#fff"><use xlink:href="#h"/></mask><use fill="url(#i)" xlink:href="#h"/><g fill="#FFF" mask="url(#j)"><path d="M44.876 72V48.28h7.666l1.148-9.244h-8.814v-5.901c0-2.677.716-4.5 4.411-4.5L54 28.631v-8.268c-.815-.112-3.613-.364-6.868-.364-6.795 0-11.447 4.308-11.447 12.22v6.816H28v9.244h7.685V72h9.191z"/></g></g></g></svg>