<svg xmlns="http://www.w3.org/2000/svg" xmlns:xlink="http://www.w3.org/1999/xlink" width="72" height="72"><defs><linearGradient id="b" x1="50%" x2="50%" y1="0%" y2="100%"><stop offset="0%" stop-color="#8C5CD5"/><stop offset="100%" stop-color="#A23FC3"/></linearGradient><path id="a" d="M23.075 0h25.85c8.024 0 10.933.835 13.867 2.404a16.361 16.361 0 016.804 6.804C71.165 12.142 72 15.051 72 23.075v25.85c0 8.024-.835 10.933-2.404 13.867a16.361 16.361 0 01-6.804 6.804C59.858 71.165 56.949 72 48.925 72h-25.85c-8.024 0-10.933-.835-13.867-2.404a16.361 16.361 0 01-6.804-6.804C.835 59.858 0 56.949 0 48.925v-25.85c0-8.024.835-10.933 2.404-13.867a16.361 16.361 0 016.804-6.804C12.142.835 15.051 0 23.075 0z"/></defs><g fill="none" fill-rule="evenodd"><mask id="c" fill="#fff"><use xlink:href="#a"/></mask><use fill="url(#b)" xlink:href="#a"/><path fill="#FFF" fill-rule="nonzero" d="M44.045 35.607c3.396 0 6.21-3.02 6.21-6.888 0-3.76-2.845-6.719-6.21-6.719-3.38 0-6.225 2.99-6.225 6.734.015 3.853 2.83 6.873 6.225 6.873zm-17.742.34c2.952 0 5.4-2.636 5.4-5.995 0-3.283-2.479-5.84-5.4-5.84-2.937 0-5.43 2.603-5.415 5.855 0 3.344 2.448 5.98 5.415 5.98zM29.286 50c-1.668-2.373-.031-7.012 3.548-9.878-1.667-1.063-3.854-1.849-6.546-1.849-6.776 0-11.288 5.024-11.288 9.138 0 1.634.78 2.589 2.937 2.589h11.349zm24.227 0c2.6 0 3.487-.848 3.487-2.312 0-3.944-5.032-9.369-12.97-9.369-7.923 0-12.97 5.425-12.97 9.37 0 1.463.887 2.311 3.502 2.311h18.95z" mask="url(#c)"/></g></svg>