<svg width="22" height="22" xmlns="http://www.w3.org/2000/svg"><path d="M11.006 20c-5.272 0-9.501-4.553-8.958-9.931.431-4.265 3.934-7.693 8.209-8.039 3.055-.246 5.918 1.029 7.758 3.315l-3.827-.512-.266 1.982 5.95.796a1 1 0 001.125-.858l.796-5.947L19.81.541l-.443 3.308c-2.345-2.748-5.93-4.223-9.72-3.767C4.598.688.569 4.804.058 9.862-.605 16.437 4.563 22 11.007 22 16.903 22 21.732 17.341 22 11.513a.498.498 0 00-.5-.513h-1.003a.504.504 0 00-.499.486C19.744 16.223 15.807 20 11.006 20z" fill="#8A8C91"/></svg>