<svg viewBox="0 0 24 24" fill="none" xmlns="http://www.w3.org/2000/svg"><g clip-path="url(#clip0)"><path d="M24 12c0-6.627-5.373-12-12-12S0 5.373 0 12s5.373 12 12 12 12-5.373 12-12z" fill="#fff"/><path d="M24 12c0-6.627-5.373-12-12-12S0 5.373 0 12s5.373 12 12 12 12-5.373 12-12z" fill="url(#paint0_linear)"/><path d="M23.5 12C23.5 5.649 18.351.5 12 .5S.5 5.649.5 12 5.649 23.5 12 23.5 23.5 18.351 23.5 12z" stroke="url(#paint1_linear)"/><path fill-rule="evenodd" clip-rule="evenodd" d="M5.268 17a8.467 8.467 0 01-1.582-4.947c0-4.655 3.722-8.428 8.314-8.428 4.592 0 8.314 3.773 8.314 8.428A8.467 8.467 0 0118.732 17l-3.994-6.573-.385.66.391 2.8L12 8.162l-1.697 2.905.395 2.818-1.439-3.455L5.27 17z" fill="url(#paint2_linear)"/></g><defs><linearGradient id="paint0_linear" x1="-.522" y1="-.522" x2="-.522" y2="24.522" gradientUnits="userSpaceOnUse"><stop stop-color="#43A5A2" stop-opacity=".01"/><stop offset="1" stop-color="#439FA1" stop-opacity=".07"/></linearGradient><linearGradient id="paint1_linear" x1="12" y1="0" x2="12" y2="24" gradientUnits="userSpaceOnUse"><stop stop-color="#27676A" stop-opacity=".15"/><stop offset="1" stop-color="#27676A" stop-opacity=".2"/></linearGradient><linearGradient id="paint2_linear" x1="3.686" y1="3.625" x2="3.686" y2="17" gradientUnits="userSpaceOnUse"><stop stop-color="#43A5A1"/><stop offset="1" stop-color="#4295A3"/></linearGradient><clipPath id="clip0"><path fill="#fff" d="M0 0h24v24H0z"/></clipPath></defs></svg>