<svg xmlns="http://www.w3.org/2000/svg" xmlns:xlink="http://www.w3.org/1999/xlink" width="86" height="86"><defs><linearGradient id="e" x1="50%" x2="50%" y1="0%" y2="100%"><stop offset="0%" stop-color="#43A5A2" stop-opacity="0"/><stop offset="100%" stop-color="#439FA1" stop-opacity=".1"/></linearGradient><linearGradient id="f" x1="50%" x2="50%" y1="0%" y2="100%"><stop offset="0%" stop-color="#43A5A1"/><stop offset="100%" stop-color="#4295A3"/></linearGradient><filter id="a" filterUnits="objectBoundingBox"><feOffset dy="1" in="SourceAlpha" result="shadowOffsetOuter1"/><feGaussianBlur in="shadowOffsetOuter1" result="shadowBlurOuter1" stdDeviation="1.5"/><feColorMatrix in="shadowBlurOuter1" result="shadowMatrixOuter1" values="0 0 0 0 0 0 0 0 0 0 0 0 0 0 0 0 0 0 0.35 0"/><feMerge><feMergeNode in="shadowMatrixOuter1"/><feMergeNode in="SourceGraphic"/></feMerge></filter><filter id="h" width="101.8%" height="102.2%" x="-.9%" y="-1.1%" filterUnits="objectBoundingBox"><feGaussianBlur in="SourceAlpha" result="shadowBlurInner1" stdDeviation=".5"/><feOffset in="shadowBlurInner1" result="shadowOffsetInner1"/><feComposite in="shadowOffsetInner1" in2="SourceAlpha" k2="-1" k3="1" operator="arithmetic" result="shadowInnerInner1"/><feColorMatrix in="shadowInnerInner1" values="0 0 0 0 0 0 0 0 0 0 0 0 0 0 0 0 0 0 0.2 0"/></filter><path id="d" d="M0 0h80v80H0z"/><path id="g" d="M16.867 57.321a29.022 29.022 0 01-5.438-16.975C11.429 24.376 24.22 11.43 40 11.43c15.78 0 28.571 12.946 28.571 28.917a29.023 29.023 0 01-5.438 16.975L49.411 34.767l-1.326 2.264 1.345 6.299L40 27l-5.833 9.968 1.358 6.362-4.943-8.55-13.715 22.54z"/><circle id="b" cx="40" cy="40" r="40"/></defs><g fill="none" fill-rule="evenodd"><g filter="url(#a)" transform="translate(3 2)"><mask id="c" fill="#fff"><use xlink:href="#b"/></mask><use fill="#D8D8D8" xlink:href="#b"/><g mask="url(#c)"><use fill="#FFF" xlink:href="#d"/><use fill="url(#e)" xlink:href="#d"/></g></g><g transform="translate(3 2)"><use fill="url(#f)" xlink:href="#g"/><use fill="#000" filter="url(#h)" xlink:href="#g"/></g></g></svg>