<svg xmlns="http://www.w3.org/2000/svg" width="125" height="30"><g fill="none" fill-rule="evenodd"><path fill="#43A5A1" d="M95.076 13.73c0 3.052-2.152 4.517-5.047 4.517h-2.17v4.87H85V9.3h5.135c2.77 0 4.941 1.5 4.941 4.43zm-2.876.07c0-1.341-1.13-1.8-2.312-1.8h-2.03v3.582h2.048c1.13 0 2.294-.494 2.294-1.782zm7.006 9.494c-1.641 0-3.124-1.059-3.124-2.806v-.07c0-2.26 2.312-2.894 4.147-2.894h.918c.512 0 .741-.265.741-.653 0-.6-.494-1.165-1.482-1.165-.847 0-1.482.494-1.694 1.288l-2.418-.547c.318-2.012 2.259-2.965 4.235-2.965 2.347 0 4.06 1.253 4.06 3.794v5.842h-2.542v-1.165l-.035-.018c-.706 1.006-1.783 1.36-2.806 1.36zm.794-2.012c1.218 0 1.87-.864 1.87-1.817v-.212h-1.64c-.565 0-1.377.335-1.377 1.076 0 .671.565.953 1.147.953zm10.412 2.047c-2.77 0-3.812-1.782-3.97-2.788l2.4-.635c.123.688.652 1.288 1.57 1.288.812 0 1.13-.459 1.13-.812 0-.6-.513-.776-1.5-.917-1.783-.247-3.407-.847-3.407-2.983 0-1.711 1.73-3.017 3.724-3.017 2.453 0 3.53 1.57 3.723 2.63l-2.382.6c-.141-.636-.582-1.113-1.376-1.113-.671 0-1.077.353-1.077.777 0 .565.459.723 1.465.83 1.817.211 3.53.846 3.53 3.017 0 1.606-1.254 3.123-3.83 3.123zm9.23 0c-2.771 0-3.813-1.782-3.971-2.788l2.4-.635c.123.688.653 1.288 1.57 1.288.812 0 1.13-.459 1.13-.812 0-.6-.512-.776-1.5-.917-1.783-.247-3.406-.847-3.406-2.983 0-1.711 1.73-3.017 3.723-3.017 2.453 0 3.53 1.57 3.724 2.63l-2.383.6c-.14-.636-.582-1.113-1.376-1.113-.67 0-1.077.353-1.077.777 0 .565.46.723 1.465.83 1.818.211 3.53.846 3.53 3.017 0 1.606-1.253 3.123-3.83 3.123z"/><path fill="#1C1C1C" d="M51.968 23.059l-6.036-9.053v9.053H43.25V9.932h3.101l5.7 8.567V9.932h2.683V23.06h-2.766zm4.364-4.46c0-2.665 2.196-4.694 4.912-4.694 2.699 0 4.862 1.979 4.862 4.644 0 2.7-2.197 4.711-4.896 4.711-2.716 0-4.878-1.961-4.878-4.66zm2.682-.033c0 1.358.99 2.297 2.213 2.297 1.224 0 2.196-.94 2.196-2.297 0-1.341-.989-2.28-2.213-2.28-1.224 0-2.196.939-2.196 2.28zm13.504-4.46v2.565c-.352-.067-.721-.067-.839-.067-1.257 0-2.129.872-2.129 2.532v3.923h-2.565v-8.953h2.481v1.308h.034c.486-1.023 1.391-1.408 2.314-1.408.2 0 .52.05.704.1zm7.553 8.953v-1.14h-.033c-.838 1.224-2.18 1.307-2.783 1.307-2.599 0-4.258-2.246-4.258-4.66 0-2.263 1.727-4.627 4.292-4.627.52 0 1.76.1 2.682 1.19h.033V9.412h2.599V23.06H80.07zm0-4.493c0-1.341-.989-2.263-2.212-2.263-1.224 0-2.213.922-2.213 2.263 0 1.358.989 2.297 2.213 2.297 1.223 0 2.212-.94 2.212-2.297z"/><path fill="#43A5A1" d="M3.274 29.235A17.18 17.18 0 010 19.118C0 9.598 7.701 1.882 17.2 1.882c9.5 0 17.202 7.717 17.202 17.236a17.18 17.18 0 01-3.274 10.117l-8.262-13.443-.798 1.35.81 3.754-5.677-9.733-3.512 5.941.818 3.792L11.53 15.8 3.274 29.235z"/></g></svg>